<svg xmlns="http://www.w3.org/2000/svg" width="20.439" height="20.532" viewBox="0 0 20.439 20.532">
  <path id="Phone" d="M148.894,6608.239c-3.109,0-6.68-1.713-9.551-4.582-4.757-4.759-6-10.972-2.828-14.144a5.9,5.9,0,0,1,3.392-1.7l.76-.109,2.8,6.521-2.8,1.4a16.313,16.313,0,0,0,2.919,3.786,16.721,16.721,0,0,0,3.771,2.9l1.314-2.574,6.483.925.038.828a6.425,6.425,0,0,1-1.707,5A6.316,6.316,0,0,1,148.894,6608.239Zm-9.433-18.268a3.886,3.886,0,0,0-1.532.958c-2.3,2.3-1,7.479,2.829,11.314,2.448,2.446,5.579,3.966,8.173,3.966a4.321,4.321,0,0,0,3.141-1.141,4.084,4.084,0,0,0,1.109-2.67l-3.367-.479-.647,1.294a2,2,0,0,1-1.787,1.1,2.054,2.054,0,0,1-.981-.25,18.64,18.64,0,0,1-4.229-3.237,18.288,18.288,0,0,1-3.267-4.249,2.01,2.01,0,0,1,.871-2.743l1.106-.552-1.42-3.313Z" transform="translate(-134.762 -6587.708)" fill="#96cc67"/>
</svg>
