<?xml version="1.0" encoding="UTF-8"?><svg id="Layer_2" xmlns="http://www.w3.org/2000/svg" viewBox="0 0 120 70"><defs><style>.cls-1{fill:#fff;}</style></defs><g id="_ÎÓÈ_1"><path class="cls-1" d="M102.28,38.17c0-3.23,0-6.45,0-9.68,0-.3-.06-.4-.38-.4-.83,.02-1.66,.02-2.49,0-.14,0-.41,.15-.41-.19,0-.36,.27-.22,.43-.22,2.06-.02,4.11,.01,6.16-.04,1.48-.04,2.97-.12,4.45,.02,2.87,.27,5.44,1.22,7.44,3.39,1.15,1.24,1.85,2.73,2.19,4.38,.49,2.37,.44,4.72-.43,7-1.02,2.66-2.93,4.46-5.54,5.56-1.2,.51-2.45,.77-3.74,.8-3.56,.08-7.13-.17-10.69-.08-.14,0-.27,.02-.28-.2,0-.22,.11-.23,.28-.23,.88,0,1.76-.01,2.64,0,.3,0,.37-.08,.37-.37-.01-3.25,0-6.5,0-9.75Zm3,0c0,3.25,0,6.5,0,9.75,0,.31,.11,.41,.4,.42,1.47,.05,2.94,.13,4.41-.07,2.11-.28,3.75-1.27,4.85-3.14,1.09-1.86,1.55-3.87,1.61-6,.06-2.08-.04-4.15-.74-6.14-1-2.84-3.06-4.39-6-4.84-1.32-.2-2.64-.15-3.96-.08-.55,.03-.55,.04-.55,.6,0,3.16,0,6.33,0,9.49Z"/><path class="cls-1" d="M40.63,28.1c.03-.32,.17-.43,.48-.43,2.34,.01,4.68-.01,7.02,.01,1.5,.02,2.94,.29,4.22,1.15,2.48,1.66,2.53,4.99,.1,6.74-1.18,.85-2.55,1.27-3.95,1.58-.49,.11-.99,.16-1.49,.27,.53,.15,1.08,.22,1.6,.41,.69,.25,1.31,.61,1.84,1.14,.73,.74,.9,1.64,.83,2.62-.09,1.2-.39,2.36-.59,3.53-.09,.54-.15,1.07-.14,1.62,.02,1.25,.92,1.95,2.14,1.65,.18-.04,.3-.08,.36,.14,.08,.29-.18,.21-.27,.22-1.2,.17-2.4,.19-3.5-.42-.83-.46-1.24-1.21-1.32-2.14-.09-1.08,.15-2.13,.32-3.19,.15-.9,.32-1.8,.32-2.72,0-1.34-.4-2.14-2.06-2.55-.99-.24-2.01-.21-3.03-.22-.21,0-.24,.13-.29,.27-.7,1.93-1.4,3.86-2.09,5.79-.52,1.44-1.04,2.89-1.57,4.33-.1,.28-.1,.38,.25,.37,1-.02,2,0,3,0,0,.33-.14,.44-.46,.44-2.8-.01-5.59,0-8.39-.01-.11,0-.32,.1-.32-.1,0-.17,.08-.34,.35-.33,.83,.02,1.66,0,2.49,.01,.22,0,.32-.06,.4-.27,2.32-6.51,4.64-13.01,6.97-19.51q.14-.4-.29-.4c-.97,0-1.95,0-2.93,0Zm4.3,9.04c.47,.03,1.07-.03,1.68-.08,1.54-.13,2.84-.71,3.75-2.01,.76-1.07,1.06-2.29,1.07-3.59,.02-1.78-.76-2.79-2.47-3.25-.62-.17-1.25-.1-1.88-.13-.28-.01-.41,.06-.5,.34-.43,1.24-.89,2.48-1.33,3.71-.57,1.57-1.12,3.15-1.7,4.72-.09,.25-.03,.3,.21,.29,.35-.01,.69,0,1.18,0Z"/><path class="cls-1" d="M59.55,38.15c0-3.2,0-6.4,.01-9.61,0-.39-.12-.46-.47-.45-.84,.03-1.68,.01-2.53,0-.13,0-.31,.08-.32-.18,0-.24,.14-.25,.31-.24,.48,0,.97,0,1.45,0,4.93,0,9.85,0,14.78,0,.34,0,.44,.08,.43,.43-.02,1.41,0,2.82-.02,4.23,0,.15,.15,.4-.15,.45-.28,.05-.27-.2-.33-.36-.37-.98-.76-1.95-1.45-2.78-.92-1.1-2.15-1.5-3.52-1.53-1.66-.03-3.32,0-4.98-.02-.22,0-.26,.08-.26,.28,0,2.86,0,5.71,0,8.57,0,.12-.05,.29,.18,.28,1.03-.02,2.05,.05,3.07-.12,1.08-.18,1.75-.84,2.19-1.8,.33-.71,.52-1.46,.73-2.21,.04-.14,.07-.23,.23-.22,.21,.01,.15,.17,.15,.27,0,2.89,0,5.79,0,8.68,0,.1,.05,.24-.13,.26-.18,.02-.21-.09-.25-.24-.22-.76-.35-1.54-.68-2.26-.56-1.23-1.5-1.9-2.87-1.92-.78-.01-1.56,0-2.34-.01-.24,0-.28,.09-.28,.31,0,3.35,0,6.7,0,10.05,0,.22,.06,.3,.29,.3,1.88-.01,3.76,.01,5.65-.02,1.87-.04,3.2-1.04,4.23-2.5,.66-.95,1.01-2.02,1.23-3.15,.01-.07,.04-.14,.04-.22,.01-.14,.09-.18,.22-.18,.14,0,.16,.09,.15,.2,0,.05,0,.1,0,.15,0,1.93,0,3.86,0,5.79,0,.27-.05,.36-.34,.36-5.81,0-11.61,0-17.42,0-.15,0-.33,.06-.33-.21,0-.27,.18-.21,.33-.21,.87,0,1.73-.01,2.6,0,.31,0,.39-.08,.39-.39-.01-3.25,0-6.5,0-9.75Z"/><path class="cls-1" d="M24.17,48.29c0,.36-.17,.44-.47,.44-2.79-.01-5.57,0-8.36-.01-.11,0-.34,.13-.35-.12,0-.23,.14-.32,.39-.31,.82,.02,1.63,0,2.45,.01,.22,0,.32-.06,.4-.28,2.08-5.82,4.17-11.64,6.26-17.46,.29-.81,.58-1.61,.89-2.45h-3.37c-.01-.32,.12-.43,.44-.43,2.62,.04,5.25-.09,7.87,.07,1.82,.11,3.47,.72,4.75,2.11,1.54,1.69,1.68,4.34,.33,6.18-1.3,1.76-3.11,2.73-5.16,3.32-1.98,.57-4,.59-6.02,.31-.22-.03-.3,.02-.37,.22-.97,2.71-1.95,5.41-2.93,8.12-.09,.24-.05,.29,.2,.29,1.01-.01,2.03,0,3.06,0Zm4.82-20.18c-.16,0-.32,.02-.48,0-.33-.05-.49,.07-.6,.41-1.19,3.37-2.4,6.74-3.6,10.1-.2,.55-.21,.57,.36,.66,1.24,.21,2.48,.26,3.71-.1,3.31-.96,5.29-4.25,5.21-7.37-.04-1.62-.73-2.79-2.29-3.37-.74-.27-1.51-.34-2.3-.33Z"/><path class="cls-1" d="M0,45.52c0-.95,0-1.9,0-2.86,0-.12-.08-.29,.15-.31,.22-.02,.22,.14,.25,.28,.22,.97,.52,1.9,.97,2.79,1.07,2.09,2.76,3.2,5.11,3.29,1.15,.04,2.31,.09,3.4-.36,1.55-.64,2.46-1.79,2.78-3.44,.49-2.57-.96-4.16-2.82-4.93-1.33-.56-2.75-.89-4.12-1.32-1.08-.34-2.12-.73-3.08-1.34-1.47-.95-2.14-2.31-2.1-4.04,.07-3.29,2.3-5.7,5.58-6.08,1.57-.18,3.02,.1,4.42,.78,.31,.15,.63,.29,.98,.31,.39,.02,.74-.02,.92-.44,.08-.18,.25-.19,.41-.16,.18,.04,.11,.2,.11,.31,0,1.58,0,3.16,0,4.75,0,.12,.06,.28-.17,.29-.2,0-.21-.12-.24-.26-.22-1.06-.57-2.07-1.21-2.96-1.36-1.88-3.21-2.52-5.46-2.14-1.25,.21-2.34,.71-3.1,1.77-1.14,1.59-.78,3.79,.8,4.94,.95,.69,2.05,1.02,3.14,1.36,1.51,.48,3.01,.95,4.51,1.44,.8,.26,1.52,.65,2.15,1.2,1.39,1.21,1.8,2.78,1.61,4.55-.34,3.11-2.6,5.41-5.72,6.05-1.43,.29-2.88,.22-4.32,0-1-.16-1.92-.55-2.88-.81-.22-.06-.46-.09-.69-.11-.37-.03-.69,.08-.85,.46-.09,.22-.25,.21-.42,.18-.2-.04-.13-.21-.13-.33,0-.95,0-1.9,0-2.86Z"/><path class="cls-1" d="M92.32,48.29c-.77-2.03-1.51-4-2.26-5.97-.24-.65-.5-1.29-.73-1.94-.07-.2-.16-.29-.39-.29-2.1,0-4.21,0-6.31,0-.19,0-.29,.06-.36,.24-.96,2.55-1.92,5.1-2.89,7.64-.11,.3,0,.32,.25,.32,.87-.01,1.73,0,2.6,0,.15,0,.33-.06,.33,.21,0,.27-.19,.21-.33,.21-1.92,0-3.84,0-5.76,0-.16,0-.32,.03-.32-.23,0-.25,.17-.2,.31-.2,.67,0,1.34-.01,2,0,.24,0,.34-.08,.42-.3,1.88-4.99,3.77-9.99,5.66-14.98,.7-1.86,1.41-3.71,2.1-5.57,.1-.26,.23-.32,.48-.32,.26,0,.38,.07,.48,.33,2.59,6.82,5.19,13.64,7.77,20.46,.11,.29,.24,.39,.55,.38,.65-.03,1.31,0,1.97,0,.14,0,.27-.02,.28,.19,0,.22-.11,.23-.28,.23-2.86,0-5.72,0-8.58,0-.16,0-.29,.01-.29-.22,0-.24,.15-.21,.3-.21,.98,0,1.95,0,2.98,0Zm-6.5-17.1c-.13,.07-.14,.2-.17,.29-1,2.64-1.99,5.28-3,7.91-.11,.29,0,.3,.23,.29,1.63,0,3.27,0,4.9,0h1.26c-1.08-2.86-2.15-5.67-3.22-8.49Z"/><path class="cls-1" d="M49.66,16.37c.56,.38,1.06,.14,1.56-.15,.61-.35,1.08-.86,1.51-1.4,.07-.09,.15-.18,.25-.3-.26,.77-1.35,1.7-2.51,2.16,.11,.17,.3,.2,.46,.27,.75,.32,1.52,.55,2.32,.74,.43,.1,.8,.04,1.16-.2,.28-.18,.53-.39,.95-.55-.36,.4-.78,.54-1.19,.84,.79,.04,1.5,.27,2.2-.1,.05-.03,.11-.03,.12,.02,0,.06,.01,.14-.08,.18-.79,.36-1.55,.81-2.45,.88-.62,.05-1.23,.02-1.84-.14-.1-.03-.21-.07-.34,.01,.32,.28,.76,.24,1.07,.47h0s-.02-.01-.03-.01c-.41-.02-.78-.2-1.16-.33-.07-.03-.17-.11-.23-.01-.07,.11,.05,.14,.12,.18,1.35,.72,2.76,1.03,4.28,.74,.41-.08,.81-.19,1.21-.32v.12c-2.13,.81-4.13,.43-6.02-.71-.8-.48-1.51-1.01-2.54-.94-.73,.04-1.36-.45-1.88-1.01,.05,.44,.21,.83,.37,1.22,.06,.14,.21,.16,.33,.21,.59,.23,1.21,.23,1.82,.28,.15,.01,.29,.02,.44,.04-.81,.15-1.59,0-2.43-.23,.2,.58,.54,.94,.98,1.23,.87,.57,1.85,.78,2.88,.82,.17,0,.34,0,.52,0,0,.02,0,.01,0,.01-.02,.02-.03,.04-.05,.04-.94,.11-1.84,0-2.71-.4-.12-.06-.29-.22-.39-.08-.1,.15,.12,.25,.21,.34,.85,.78,1.81,1.31,2.98,1.44,.03,0,.08,0,.07,.06-.36,.06-.72,0-1.3-.22-.75-.29-1.4-.72-1.97-1.29-.07-.07-.14-.24-.25-.14-.12,.1,.04,.2,.1,.27,1.2,1.44,2.73,2.24,4.61,2.35,.08,0,.17-.02,.27,.07-1.1,.11-2.06-.23-2.99-.71-.71-.37-1.31-.87-1.85-1.46-.06-.07-.12-.21-.23-.13-.12,.09,.02,.18,.07,.24,.27,.35,.55,.69,.83,1.04l-.04,.03c-.84-.76-1.42-1.69-1.88-2.71-.08-.17-.14-.34-.2-.51-.13-.35-.3-.67-.66-.85-.12-.06-.29-.13-.27-.33l.29,.16s.02,.06,.06,.04c0,0-.01-.05-.02-.07-.47-1.41-.61-2.83-.15-4.38-.54,.63-.76,1.28-.84,1.99-.1,.85,.18,1.59,.67,2.27-.17,.03-.21-.12-.28-.21-.79-1.07-.65-2.19-.16-3.32,.05-.12,.12-.24,.18-.36v-.12l-.08,.02c-1.69,.47-3.01,1.6-4.48,2.46-3.9,2.29-7.98,4.19-12.34,5.44-.08,.02-.17,.04-.25,.06-.5,.09-.94,.18-.96,.87,0,.44-.37,.66-.83,.74-.75,.14-1.49,.31-2.27,.22-.37-.04-.73-.14-1.06-.29-.47-.21-.92-.46-1.42-.71,.7-.29,1.2-.81,1.86-1.08,.8-.33,1.65-.42,2.48-.58,.73-.14,.83-.11,1.2,.55,.14,.25,.28,.3,.54,.23,5.45-1.49,10.49-3.84,15.19-6.95,.56-.79,1.49-1.11,2.28-1.67-.75-.22-1.48-.22-2.19-.34-3.02-.5-5.45-1.84-6.7-4.8-.26-.62-.33-1.28-.27-1.96,.04,1.73,.75,3.15,1.99,4.31,1.21,1.13,2.62,1.88,4.27,2.17-1.23-.54-2.39-1.2-3.34-2.16h.12c.75,.65,1.55,1.23,2.53,1.56-1-.9-1.76-1.95-2.3-3.17-.54-1.22-.89-2.47-.7-3.83,.06,.66,.06,1.32,.2,1.97,.38,1.77,1.16,3.31,2.54,4.51,.03,.04,.07,.12,.12,.05,.04-.05,0-.11-.07-.13,.02-.32,.16-.6,.29-.88,.08-.16,.07-.29-.04-.43-.72-.91-1.1-1.95-1.25-3.11-.08-.66-.36-1.3-.46-1.97-.21-1.38-.1-2.75,.35-4.08,.06,.03,.12,.05,.18,.08-.17,.56-.4,1.11-.34,1.73,.27-.6,.39-1.26,.88-1.75-.71,1.18-1.01,2.44-.71,3.8-.1,.02-.1-.03-.11-.08,0-.04-.02-.08-.05-.12,.02,.55,.06,1.1,.24,1.71,.08-.45,0-.8-.06-1.17,.1,.05,.17,.25,.24,0,.07-.25,.17-.48,.26-.73l.06,.06c-.18,.52-.36,1.05-.24,1.62h0c-.14-.05-.16,.02-.16,.14,0,.51,.1,.98,.38,1.42l.04,.12s.02-.03,.02-.05c0-.04,0-.09-.07-.06,.06-.04,.04-.1,.04-.16-.06-.42-.12-.84-.18-1.25h0c.13-.04,.06-.2,.23-.32-.14,.52,.04,.94,.21,1.36h0c-.12-.06-.2-.09-.18,.12,.11,.81,.45,1.52,.94,2.16,.07,.09,.13,.31,.28,.2,.12-.09,.19-.29,.09-.47-.05-.1-.12-.18-.18-.28-.31-.5-.69-.95-.89-1.51,.01,0,.02-.01,.03-.02,.37,.51,.64,1.09,1.06,1.6l.13-.27,.06,.05c0,.13-.02,.26-.01,.39,0,.14,.09,.1,.17,.08l.04,.03c-.18,.18,.16,.28,.07,.45-.12,0-.14-.25-.28-.15-.14,.1-.13,.28-.08,.44,.02,.07,.13,.13,.07,.23-.01,.05-.14,.09,0,.14,.04,.54,.55,.64,.86,.96,.05-.24-.19-.33-.2-.52,.09,.02,.16-.14,.22-.06,.1,.13,.15,.28,.23,.43-.17,.12-.07,.25,.02,.31,.37,.25,.78,.44,1.24,.48-.12-.09-.25-.14-.37-.21-.31-.18-.68-.27-.89-.59,.46,.16,.81,.55,1.39,.61-.15-.13-.26-.21-.36-.3-.32-.3-.7-.52-.95-.89l.06-.06h-.05c.06-.17-.13-.24-.15-.38-.04-.23-.35-.27-.36-.53,0-.41-.26-.75-.38-1.13-.09-.27-.12,.03-.18,.05l-.03-.02c.2-.58-.14-1.08-.26-1.6-.38-1.78-.37-3.54,.2-5.28,.02-.05,.06-.1,.12-.13-.1,.45-.22,.89-.3,1.34-.26,1.34-.2,2.67,.1,3.99,0,.02,.05,.04,.07,.06h0c-.1,.3,.21,.44,.26,.68,.21-.03,.16-.29,.33-.32-.33,.56-.33,1.11,.06,1.65l.24-1.93c-.15,.09-.16,.27-.31,.29-.02-.17,.12-.26,.2-.38,.23-.31,.34-.67,.48-1.02-.08,.42-.17,.84-.24,1.26-.1,.58-.2,1.15-.28,1.73-.04,.3,.08,.58,.23,.83,.21,.34,.45,.65,.7,.94-.02,.01-.03,.03-.04,.04-.02,0-.05,0-.07,0l-.04-.04s-.01,.05,.02,.07c.02,.04,.04,.07,.09,.06h0c-.03,.08,0,.13,.06,.16l.07,.07,.08,.07,.08,.07,.05,.04s0-.06-.02-.07l-.07-.08-.07-.08-.07-.07-.02-.12,.04-.04c.11,.06,.19,.08,.13-.1-.09-.27-.18-.54-.24-.81-.41-1.78-.09-3.5,.51-5.18,.29-.83,.68-1.6,1.22-2.31-1.43,2.55-2.3,5.19-1.39,8.13-.09-2.56,.9-4.73,2.38-6.73,.02,.19-.12,.3-.21,.43-1.02,1.53-1.79,3.17-2.01,5.02-.08,.66-.01,1.31,.2,1.93,.13,.38,.6,.64,.98,.57l.07,.06c.04,.19,.16,.21,.23,.06,.15-.3,.35-.6,.34-.96,0-.08-.02-.15,.03-.21,.54-.63,.74-1.43,1.08-2.17,.07-.14,.12-.3,.29-.45-.11,.4-.29,.73-.44,1.06-.04,.1-.19,.22-.05,.32,.12,.08,.19-.09,.25-.16,.77-.83,1.56-1.66,2.42-2.4,.1-.09,.18-.19,.41-.24-.39,.36-.71,.67-1.04,.97-.79,.73-1.5,1.54-2.25,2.31-.52,.53-.58,1.29-.91,1.92-.07,.13,.03,.19,.16,.21,.19,.03,.33-.05,.47-.16,1.17-.88,2.37-1.73,3.59-2.55,.1-.07,.2-.12,.31-.19,.03,.16-.09,.17-.15,.21-.92,.66-1.85,1.31-2.77,1.97-.09,.06-.37,.09-.16,.32,0,0-.05,.09-.08,.11-.32,.16-.44,.48-.62,.75-.14,.21-.08,.43-.03,.64,.03,.15,.19,.06,.29,.04,1.04-.18,2.01-.56,2.96-1,.84-.38,1.65-.82,2.46-1.26,.1-.06,.19-.16,.33-.14h0c-.26,.31-.65,.44-.99,.62-1.43,.79-2.91,1.48-4.53,1.85-.04,0-.07,.02-.11,.03-.14,.05-.42-.08-.4,.18,.02,.24-.04,.55,.35,.68,.81,.26,1.62,.31,2.45,.22,1.15-.12,2.24-.44,3.32-.82,.07-.02,.14-.02,.24-.04-.97,.8-4.45,1.22-6.2,.75,.05,.35,.23,.61,.4,.88-.25,.08-.05,.19-.03,.29,.03,.03,.03,.11,.11,.08h0c-.01,.26,.21,.41,.3,.63,.13,.31,.33,.36,.63,.18l-.41-.39,.08-.08c.39,.46,.83,.47,1.33,.18,.22-.13,.47-.21,.71-.28-.35,.34-.84,.42-1.28,.61,.1,.23,.38,.25,.44,.48-.14,.02-.23-.09-.32-.16-.26-.23-.53-.27-.84-.11,.09,.23,.38,.22,.49,.43-.03,.04-.21-.06-.1,.08,.3,.39,.7,.7,1.11,.96,.03,.02,.09,.02,.13,0,.33-.1,.67-.19,1.02-.41-.54-.19-.95-.55-1.54-.46-.2,.03-.46-.03-.64-.19,.29-.07,.56,.18,.87,.03-.07-.08-.19-.08-.21-.19Zm-2.18-5.1c-.05,.04-.15,.07-.08,.15,.03,.04,.1-.02,.13-.08,.04-.02,.1-.02,.06-.09-.03-.06-.07-.01-.11,.01Zm.19,4.21l.04,.07s.02-.02,.02-.03c0-.04-.03-.05-.06-.04v-.1l-.05,.02,.06,.07Zm-2.37-2.14c.21-.13,.61-.04,.58-.53-.23,.18-.43,.33-.62,.48l-.1,.09c.06,.04,.11,.02,.14-.04Zm-2.3-2.61s-.02-.07-.06-.04c-.01,0,0,.06,0,.09,.08,.2,.19,.37,.31,.54,.21,.29,.55,.44,.79,.69-.64-.19-1.03-.66-1.23-1.24-.13-.38-.37-.61-.66-.86-.06,.12-.12,.21-.16,.31-.25,.59-.23,1.11,.49,1.42,.21,.09,.41,.23,.62,.32,.33,.15,.67,.23,1.03,.24,.01-.12-.14-.1-.09-.2,.08-.03,.09-.08,.06-.16-.04-.09-.13-.17-.05-.28,.45,.66,.33,.82,1.78,.38-.55-.1-1.06-.28-1.56-.48-.1-.04-.25-.16-.22,.1-.27-.38-.62-.66-1.05-.83Zm3.51,5.18l-.07-.03v.09c.34,1.25,2.01,2.19,3.06,1.7-.34-.29-.74-.5-1.02-.84,.15-.09,.18,.12,.3,.04l-.59-.73-.09,.07,.38,.55c-.27-.11-.35-.28-.46-.41-.07-.08-.12-.19-.26-.18-.45,.05-.84-.13-1.26-.25Zm.22-2.88c-.26,.57-.34,1.15-.36,1.74-.05,.98,.15,1.19,1.14,1.27,.01,0,.02,0,.04,0,.21,.03,.23-.03,.14-.22-.32-.62-.58-1.27-.67-1.97-.04-.28-.08-.56-.28-.82Zm9.11,4.92c-.6,.03-1.19,.02-1.77-.09-.16-.03-.33,.02-.47,.08-.61,.25-1.24,.32-1.89,.3-.08,0-.17,0-.35,.02,1.61,.62,3.07,.48,4.48-.31Zm-2.39-.13c-.63-.12-1.2-.27-1.76-.45-.14-.04-.29-.16-.42-.08-.31,.19-.67,.27-1.01,.44,.8,.53,2.23,.58,3.19,.1Zm-12.47-10.69c.13,.85,.44,1.63,1,2.3l.08-.04-1.08-2.26Zm5.42,10.35c-.19-1.91-.19-1.92-.5-2.15,.03,.74,.16,1.44,.5,2.15Zm-.29-3.41c-.16,.36-.21,.71,0,1.16v-1.16Zm1.69,1.55c.05,.15,0,.4,.31,.36l-.31-.36Zm.15,4.8s.06-.04,.06-.05c-.02-.07-.06-.14-.13-.15-.02,0-.08,.04-.07,.05,.03,.07,.05,.14,.15,.16Zm-.09-.53c.03,.06,.05,.14,.14,.15,.02,0,.08-.02,.08-.04,0-.08-.04-.13-.11-.16-.06-.03-.08,.01-.11,.05Zm2.94-1.39c.07,.03,.11,.04,.16,.06,.05,.02,.05-.03,.07-.06-.04-.02-.08-.04-.13-.05-.02,0-.05,.02-.1,.05Zm.73,.02c.05,.09,.12,.12,.2,.12,0,0,.03-.07,.03-.08-.06-.05-.12-.11-.23-.04Zm-3.9-9.47s-.07-.05-.08-.05c-.03,.02-.07,.06-.09,.09,0,.02,.02,.05,.03,.08l.14-.12Zm-4.77,3.13s.03,.04,.05,.04c.05,0,.14,.04,.13-.04,0-.05-.11-.07-.18,0Zm5.03,7.97l-.18-.15s-.03,.07-.02,.09c.02,.04,.06,.07,.1,.09,.02,0,.05-.02,.1-.04Zm3.3-1.6s-.03-.03-.09,0c-.02,0-.03,.03-.04,.04,0,.06,.04,.08,.09,.07,.03,0,.07-.02,.03-.12Zm-5.83-6.97s-.04-.02-.06-.02c-.01,0-.02,.02-.04,.03,.02,0,.04,.02,.06,.02,.01,0,.02-.02,.04-.03Zm-2.65,.46l-.07,.06s.03,.04,.05,.04c.03,0,.06-.01,.09-.02l-.06-.08Zm4.91,7.35s-.05-.04-.08-.05c-.01,0-.04,.02-.05,.03,.02,.02,.05,.04,.07,.06,0,0,.03-.02,.06-.04Zm-5.71-7.79s.06-.03,.05-.03c0-.03-.03-.06-.04-.09l-.06,.03s.03,.06,.04,.1Zm6.34,8.18s-.02,.02-.02,.02c0,.02,.01,.03,.02,.05,0,0,.02-.02,.02-.02,0-.02-.01-.03-.02-.05Zm-6.16-10.25l.03-.02s-.03-.02-.05-.02c0,0-.02,.01-.02,.02l.04,.02Zm5.54,9.98l.03,.05s.02-.02,.02-.02c0-.02-.01-.03-.02-.05l-.03,.03Z"/><path class="cls-1" d="M52.11,64.22c0-1.11,0-2.16,0-3.21,0-.1-.08-.26,.13-.28,.22-.02,.23,.09,.23,.27,0,1.03,0,2.05,0,3.08,0,1.01,0,2.03,0,3.04,0,.15,.04,.31-.21,.3-.24-.01-.13-.19-.15-.3-.02-.12,.03-.24-.06-.39-.42,.58-.98,.86-1.69,.78-.47-.05-.87-.26-1.19-.61-.73-.83-.68-2.2,.11-2.96,.78-.75,1.83-.66,2.84,.3Zm-1.53,2.92c.9,0,1.54-.69,1.54-1.67,0-1.01-.63-1.7-1.55-1.7-.9,0-1.55,.69-1.55,1.67,0,1.14,.82,1.77,1.56,1.69Z"/><path class="cls-1" d="M52.07,54.88c.08-.11,.04-.24,.04-.35,0-.94,0-1.88,0-2.82,0-.13-.03-.27,.19-.26,.2,0,.17,.13,.17,.25,0,2.06,0,4.13,0,6.19,0,.12,.02,.24-.17,.25-.23,.01-.19-.14-.19-.27,0-.13,0-.27-.03-.44-.44,.58-1.01,.85-1.71,.77-.48-.05-.9-.26-1.22-.63-.7-.81-.65-2.15,.1-2.91,.78-.79,1.76-.71,2.82,.21Zm.06,1.32c0-1-.64-1.72-1.54-1.73-.88,0-1.54,.71-1.56,1.67-.02,.98,.65,1.71,1.55,1.72,.9,0,1.55-.69,1.55-1.67Z"/><path class="cls-1" d="M32.84,54.94c1-.98,2.09-1.06,2.88-.26,.79,.8,.78,2.23-.02,3.01-.8,.78-1.87,.7-2.79-.23-.1,.09-.06,.21-.06,.31,0,.88,0,1.75,0,2.63,0,.13,.06,.32-.19,.31-.23,0-.17-.18-.17-.3,0-1.96,0-3.93,0-5.89,0-.13-.07-.31,.19-.31,.24,0,.15,.17,.16,.29,.01,.12,0,.24,0,.43Zm1.54,2.93c.91,0,1.56-.73,1.54-1.72-.01-.96-.68-1.68-1.56-1.67-.9,0-1.55,.74-1.54,1.73,.01,.97,.67,1.67,1.56,1.66Z"/><path class="cls-1" d="M15.37,54.25c.29-.11,.41,.01,.5,.26,.32,.94,.66,1.87,1.03,2.89l1.33-3.38,1.34,3.35c.22-.59,.42-1.12,.61-1.66,.15-.41,.32-.83,.44-1.25,.08-.24,.2-.32,.45-.22l-1.5,4.09-1.34-3.38-1.35,3.38-1.5-4.09Z"/><path class="cls-1" d="M39.2,67.62l-1.34-3.38-1.36,3.37c-.37-.99-.7-1.89-1.03-2.78-.12-.33-.25-.67-.36-1.01-.03-.1-.21-.25,0-.33,.2-.08,.3,.06,.37,.25,.22,.65,.45,1.3,.69,1.95,.11,.29,.17,.61,.38,.92l1.3-3.31,1.35,3.35c.36-1,.69-1.9,1.02-2.81,.03-.09,.06-.19,.1-.27,.07-.13,.2-.09,.3-.07,.1,.02,.06,.11,.03,.18-.47,1.28-.94,2.55-1.45,3.94Z"/><path class="cls-1" d="M41.93,56.27c-.46,0-.92,0-1.37,0-.21,0-.31,0-.26,.28,.12,.59,.41,1.03,.99,1.24,.63,.22,1.22,.14,1.73-.32,.11-.1,.18-.25,.34-.06,.16,.19-.04,.24-.12,.31-.58,.56-1.6,.67-2.35,.27-.7-.38-1.14-1.31-.99-2.11,.21-1.13,.99-1.8,2.03-1.74,.94,.05,1.82,1.09,1.69,2-.02,.18-.14,.14-.25,.14-.48,0-.97,0-1.45,0Zm-.19-.35c.42,0,.84,0,1.26,0,.18,0,.24-.05,.21-.23-.09-.69-.72-1.25-1.44-1.25-.69,0-1.36,.58-1.46,1.24-.02,.17,0,.24,.2,.23,.41-.01,.82,0,1.22,0Z"/><path class="cls-1" d="M23.61,56.27c-.46,0-.92,.02-1.37,0-.31-.02-.32,.12-.27,.35,.28,1.26,1.77,1.71,2.73,.82,.13-.12,.22-.19,.34-.01,.11,.16-.05,.22-.13,.3-.84,.81-2.36,.63-3.01-.36-.71-1.08-.29-2.84,1.15-3.19,.9-.22,1.82,.3,2.11,1.23q.27,.87-.62,.87h-.93Zm1.29-.35c-.15-.95-.63-1.44-1.41-1.47-.72-.02-1.32,.47-1.51,1.23-.03,.12-.08,.24,.13,.24,.93,0,1.85,0,2.78,0Z"/><path class="cls-1" d="M47.21,57.7c-.54,.52-1.14,.62-1.81,.44-.57-.15-.92-.62-.9-1.2,.02-.57,.41-1,1.01-1.11,.49-.09,.99-.06,1.48-.06,.21,0,.28-.06,.26-.27-.04-.43-.15-.81-.6-.97-.51-.18-.97-.08-1.37,.28-.05,.05-.11,.11-.14,.17-.07,.13-.14,.13-.26,.04-.12-.09-.07-.15-.02-.24,.33-.52,1.13-.79,1.77-.62,.65,.18,.97,.61,.98,1.34,.01,.77,0,1.53,0,2.3,0,.11,.12,.31-.15,.33-.28,.02-.19-.19-.21-.33,0-.02-.01-.05-.03-.11Zm-.83-1.57c-.27,.02-.61-.04-.93,.07-.34,.12-.54,.35-.58,.7-.03,.33,.09,.6,.38,.79,.43,.28,1.24,.23,1.64-.1,.29-.24,.54-1.04,.33-1.36-.16-.25-.5-.05-.75-.1-.01,0-.02,0-.1,0Z"/><path class="cls-1" d="M21.19,67.5c-1.08,0-1.92-.9-1.91-2.06,0-1.15,.85-2.03,1.95-2.02,1.08,0,1.93,.92,1.92,2.06-.01,1.15-.87,2.03-1.96,2.02Zm-1.53-2.05c0,.98,.66,1.72,1.54,1.73,.89,0,1.56-.73,1.57-1.7,0-.97-.65-1.71-1.55-1.72-.89-.02-1.56,.72-1.57,1.7Z"/><path class="cls-1" d="M43.11,67.5c-1.09,0-1.92-.9-1.92-2.05,0-1.16,.84-2.03,1.94-2.03,1.08,0,1.94,.91,1.93,2.05,0,1.14-.86,2.03-1.96,2.03Zm1.57-2.04c0-.97-.66-1.71-1.55-1.72-.89,0-1.55,.72-1.56,1.71,0,.98,.65,1.71,1.54,1.72,.88,0,1.56-.74,1.57-1.71Z"/><path class="cls-1" d="M17.14,66.65c.19-.45,.35-.83,.51-1.21,.23-.57,.47-1.14,.7-1.71,.02-.05,.04-.09,.06-.14,.07-.15,.22-.13,.32-.09,.14,.06,.03,.16,0,.24-.83,2.01-1.65,4.02-2.48,6.03-.08,.19-.22,.26-.38,.18-.17-.08,0-.22,.04-.31,.3-.77,.61-1.53,.94-2.29,.08-.18,.07-.31,0-.48-.45-1.01-.89-2.03-1.33-3.04-.05-.11-.09-.22-.13-.33,.28-.09,.41,0,.51,.27,.33,.82,.69,1.63,1.04,2.44,.05,.12,.11,.23,.2,.42Z"/><path class="cls-1" d="M27.02,66.77c-.55,.68-1.17,.87-1.91,.65-.57-.17-.9-.62-.92-1.29-.02-.8,0-1.61,0-2.41,0-.14,.01-.23,.2-.23,.2,0,.18,.12,.18,.24,0,.72,0,1.43,0,2.15,0,.87,.33,1.25,1.06,1.25,.83,0,1.38-.49,1.39-1.29,.02-.68,0-1.36,.01-2.04,0-.13-.07-.31,.18-.31,.27,0,.17,.2,.17,.32,0,1.09,0,2.18,0,3.26,0,.12,.11,.32-.15,.33-.28,.02-.19-.19-.2-.33,0-.07,0-.14,0-.3Z"/><path class="cls-1" d="M29.89,58.23c-.45-.02-.95-.2-1.26-.71-.06-.09-.23-.2-.01-.33,.18-.1,.22,0,.3,.13,.32,.49,.9,.69,1.46,.53,.29-.08,.52-.23,.57-.56,.06-.34-.06-.62-.38-.77-.42-.2-.87-.34-1.29-.55-.63-.32-.73-1.14-.21-1.58,.5-.42,1.45-.32,1.83,.21,.06,.08,.22,.18,.03,.3-.13,.09-.21,.06-.31-.06-.24-.31-.57-.43-.95-.35-.31,.06-.53,.23-.57,.55-.04,.33,.15,.54,.43,.66,.34,.15,.7,.24,1.03,.4,.39,.18,.74,.42,.75,.91,.03,.8-.43,1.23-1.43,1.22Z"/><path class="cls-1" d="M46.55,64.08c.37-.53,.8-.75,1.35-.66,.11,.02,.31,0,.28,.21-.03,.19-.16,.18-.32,.16-.72-.08-1.26,.37-1.3,1.12-.04,.73-.02,1.45-.03,2.18,0,.14,.06,.31-.19,.31-.26,0-.17-.2-.17-.32,0-1.08,0-2.17,0-3.25,0-.12-.11-.32,.15-.33,.28-.02,.19,.18,.21,.33,0,.06,.01,.12,.03,.26Z"/><path class="cls-1" d="M29.26,64.02c.31-.44,.71-.68,1.26-.6,.13,.02,.34-.01,.33,.21-.01,.24-.19,.18-.35,.16-.67-.06-1.15,.32-1.26,1.02-.11,.76-.02,1.53-.05,2.29,0,.09,0,.18-.03,.25-.05,.09-.15,.05-.24,.05-.13,0-.12-.1-.12-.19,0-1.17,0-2.35,0-3.52,0-.14,.05-.2,.19-.2,.15,0,.2,.05,.2,.19,0,.1-.04,.22,.07,.34Z"/><path class="cls-1" d="M37.79,54.81c.36-.51,.77-.75,1.31-.66,.12,.02,.33,0,.32,.22-.02,.25-.2,.17-.35,.15-.68-.08-1.26,.44-1.27,1.17-.01,.73,0,1.45,0,2.18,0,.15,.04,.3-.21,.29-.24,0-.17-.17-.17-.29,0-1.11,0-2.22,0-3.33,0-.12-.09-.31,.18-.32,.28,0,.18,.19,.2,.33,0,.05,0,.1,0,.26Z"/><path class="cls-1" d="M38.9,9.62c-1.37-1.49-2.22-3.2-2.22-5.26,.16,1.97,.92,3.67,2.23,5.14l-.02,.12Z"/><path class="cls-1" d="M42.77,6.45c.15-.06,.05-.16,.04-.24-.19-2,.28-3.85,1.33-5.6,.06,.18-.04,.26-.09,.35-.83,1.47-1.2,3.06-1.15,4.75,0,.26,.01,.51-.13,.75h0Z"/><path class="cls-1" d="M57.38,18.39c-.83,.78-2.91,1.13-4.04,.79,.7,.03,1.39,.04,2.08-.11,.68-.15,1.32-.43,1.96-.68Z"/><path class="cls-1" d="M41.09,3.88c.19-.48,.47-.91,.87-1.26-.34,.8-.65,1.6-.75,2.47-.12-.18-.02-.36,0-.54,.03-.19,.09-.38,.14-.57,.05-.19,.1-.37,.11-.57l-.32,.52-.06-.06Z"/><path class="cls-1" d="M52.96,23.69c-1,.07-1.85-.33-2.67-.83,.85,.43,1.75,.67,2.67,.83Z"/><path class="cls-1" d="M47.78,14.97c-.02-.1-.23-.22,.03-.29,.22,.24,.45,.48,.67,.71-.03,.03-.05,.05-.08,.08-.21-.09-.29-.34-.51-.42h0c0-.07-.05-.09-.11-.08Z"/><path class="cls-1" d="M48.93,21.8l.69,.56c-.31-.1-.54-.3-.74-.53l.04-.03Z"/><path class="cls-1" d="M51.71,21.81c.31-.11,.6-.04,.9,.03-.3,.05-.6,.06-.9-.03Z"/><path class="cls-1" d="M40.73,.49c-.06-.03-.12-.05-.18-.08l.15-.42c.22,.17,.11,.33,.03,.49Z"/><path class="cls-1" d="M57.04,19.48v-.12c.21-.1,.42-.22,.66-.23h0c-.19,.16-.41,.27-.65,.35Z"/><path class="cls-1" d="M38.9,9.62l.02-.12c.16,.11,.3,.25,.41,.41h-.12c-.13-.07-.23-.17-.31-.3Z"/><path class="cls-1" d="M46.06,11.22c.07-.13,.08-.31,.27-.41-.03,.2-.1,.34-.21,.47l-.07-.06Z"/><path class="cls-1" d="M41.43,6.74c.07,.05,.09,.13,.11,.2-.01,0-.02,.01-.03,.02-.09-.06-.13-.13-.07-.23h0Z"/><path class="cls-1" d="M42.73,8.27c.04-.06,0-.17,.11-.19l.03,.02c-.01,.08,0,.16-.08,.22l-.06-.05Z"/><path class="cls-1" d="M40.91,5.55c.1,0,.08,.09,.08,.15h0c-.13,0-.07-.09-.07-.15h0Z"/><polygon class="cls-1" points="53.25 10.31 53.25 10.29 53.25 10.3 53.25 10.31"/><path class="cls-1" d="M44.44,10.19l.07,.08-.04,.04s-.05,0-.07,0h0s0-.05,0-.07c.01-.01,.03-.03,.04-.04Z"/><path class="cls-1" d="M57.7,19.13l.02-.06c.06,.05-.02,.04-.03,.05h0Z"/><path class="cls-1" d="M47.67,15.49l-.06-.07,.04-.02v.1h.02Z"/><path class="cls-1" d="M41.13,7.12c.07-.03,.07,.02,.07,.06,0,.02-.02,.03-.02,.05l-.04-.12h0Z"/><path class="cls-1" d="M45.34,11.59s-.03,.03-.04,.03c-.02,0-.04-.01-.06-.02,.01-.01,.02-.03,.04-.03,.02,0,.04,.01,.06,.02Z"/><path class="cls-1" d="M42.69,12.05l.06,.08s-.06,.02-.09,.02c-.02,0-.03-.03-.05-.04l.07-.06Z"/><path class="cls-1" d="M42.77,9.93c-.14-.05-.01-.1,0-.14h0v.15h0Z"/><path class="cls-1" d="M44.4,10.3s.05,0,.07,0l.02,.12s-.02,.03-.04,.04c-.06-.04-.09-.09-.06-.16Z"/><path class="cls-1" d="M44.53,10.54l-.07-.07s.02-.03,.04-.04l.07,.07s-.02,.03-.04,.04Z"/><path class="cls-1" d="M48.22,19.79s.02,.03,.02,.05c0,0-.01,.02-.02,.02,0-.02-.02-.03-.02-.05,0,0,.01-.02,.02-.02Z"/><path class="cls-1" d="M44.4,10.23s0,.05,0,.07c-.05,.02-.07-.01-.09-.06l.02-.02s.05,0,.07,0Z"/><path class="cls-1" d="M44.31,10.24s-.05-.03-.02-.07l.04,.04-.02,.02Z"/><path class="cls-1" d="M43.95,10.08h.05l-.06,.06h0v-.07h0Z"/><path class="cls-1" d="M44.57,10.5l.07,.08s-.02,.03-.03,.04l-.08-.07s.03-.03,.04-.04Z"/><path class="cls-1" d="M46.43,15.97v-.09l.07,.03-.07,.06Z"/><path class="cls-1" d="M44.64,10.57l.07,.08-.03,.03-.08-.07s.02-.03,.03-.04Z"/><path class="cls-1" d="M42.94,10.78s-.02-.08,0-.09c.04-.03,.05,.01,.06,.04-.02,.02-.03,.03-.06,.04Z"/><path class="cls-1" d="M42.07,9.55l-.04-.02s.02-.02,.02-.02c.02,0,.03,.01,.05,.02l-.03,.02Z"/><path class="cls-1" d="M47.66,15.5s.06,0,.06,.04c0,0-.01,.02-.02,.03l-.04-.07h0Z"/><path class="cls-1" d="M45.55,13.43l.09-.02v.12l-.09-.1Z"/><path class="cls-1" d="M44.72,10.65s.07,.03,.02,.07l-.05-.04,.03-.03Z"/><path class="cls-1" d="M47.6,19.52l.03-.03s.02,.03,.02,.05c0,0-.01,.02-.02,.02l-.03-.05Z"/><path class="cls-1" d="M46.21,17.54s.03,.07,.02,.07c-.04,.02-.05,0-.06-.04l.04-.04Z"/><path class="cls-1" d="M43.06,9.26c.32,.13,.6,.3,.68,.67-.12,.07-.2,.11-.28-.07-.1-.21-.26-.4-.39-.6Z"/><path class="cls-1" d="M42.76,9.93v-.15c.17,.03,.28,.12,.3,.3-.14,.04-.17-.16-.3-.15Z"/><path class="cls-1" d="M43.36,10.3c-.15-.02-.25-.08-.31-.23,.18-.03,.25,.09,.31,.23Z"/><path class="cls-1" d="M43.96,10.07v.08c-.06,.01-.11,0-.08-.08h.08Z"/><path class="cls-1" d="M43.8,10c.06,0,.08,.02,.08,.08-.07,.02-.12,.01-.08-.08Z"/><path class="cls-1" d="M43.73,9.92c.05,0,.09,.02,.08,.08-.09,.04-.11,0-.08-.08Z"/><path class="cls-1" d="M43.44,10.38c-.07,.01-.09-.02-.08-.08,.06,0,.12,0,.08,.08Z"/><path class="cls-1" d="M43.06,8.74s-.03,.07-.07,.08l-.04-.03,.09-.06,.03,.02Z"/><path class="cls-1" d="M43.03,8.72l.06-.07,.04,.04-.07,.05-.03-.02Z"/></g></svg>