<svg id="_x30_1._Facebook" xmlns="http://www.w3.org/2000/svg" width="12.137" height="22.5" viewBox="0 0 12.137 22.5">
  <path id="Icon_11_" d="M31.779,22.8H28.991c-.451,0-.591-.169-.591-.591V18.8c0-.451.169-.591.591-.591h2.788V15.732a6.255,6.255,0,0,1,.76-3.182,4.672,4.672,0,0,1,2.506-2.084,6.265,6.265,0,0,1,2.168-.366h2.76c.394,0,.563.169.563.563v3.21c0,.394-.169.563-.563.563-.76,0-1.521,0-2.281.028a1.017,1.017,0,0,0-1.155,1.155c-.028.845,0,1.661,0,2.534H39.8c.451,0,.62.169.62.62v3.407c0,.451-.141.591-.62.591H36.538v9.18c0,.479-.141.648-.648.648h-3.52c-.422,0-.591-.169-.591-.591Z" transform="translate(-28.4 -10.1)" fill="#847367"/>
</svg>
