<svg id="instagram_1_" data-name="instagram (1)" xmlns="http://www.w3.org/2000/svg" width="19.585" height="19.585" viewBox="0 0 19.585 19.585">
  <g id="Group_13" data-name="Group 13" transform="translate(15.01 3.624)">
    <g id="Group_12" data-name="Group 12">
      <path id="Path_18" data-name="Path 18" d="M392.876,94.739a.475.475,0,1,0,.475.475A.476.476,0,0,0,392.876,94.739Z" transform="translate(-392.401 -94.739)" fill="#847367"/>
    </g>
  </g>
  <g id="Group_15" data-name="Group 15" transform="translate(5.577 5.577)">
    <g id="Group_14" data-name="Group 14">
      <path id="Path_19" data-name="Path 19" d="M150.019,145.8a4.215,4.215,0,1,0,4.215,4.215A4.22,4.22,0,0,0,150.019,145.8Z" transform="translate(-145.804 -145.804)" fill="#847367"/>
    </g>
  </g>
  <g id="Group_17" data-name="Group 17">
    <g id="Group_16" data-name="Group 16">
      <path id="Path_20" data-name="Path 20" d="M14.216,0H5.369A5.375,5.375,0,0,0,0,5.369v8.847a5.375,5.375,0,0,0,5.369,5.369h8.847a5.375,5.375,0,0,0,5.369-5.369V5.369A5.375,5.375,0,0,0,14.216,0ZM9.793,15.165a5.372,5.372,0,1,1,5.372-5.372A5.378,5.378,0,0,1,9.793,15.165Zm5.693-9.433A1.632,1.632,0,1,1,17.118,4.1,1.634,1.634,0,0,1,15.486,5.732Z" fill="#847367"/>
    </g>
  </g>
</svg>
