<svg id="linkedin_1_" data-name="linkedin (1)" xmlns="http://www.w3.org/2000/svg" width="19.718" height="19.718" viewBox="0 0 19.718 19.718">
  <path id="Path_15" data-name="Path 15" d="M21.228,21.069h0V13.837c0-3.538-.762-6.263-4.9-6.263A4.293,4.293,0,0,0,12.468,9.7H12.41V7.9H8.489V21.068h4.083V14.55c0-1.716.325-3.376,2.451-3.376,2.094,0,2.125,1.959,2.125,3.486v6.409Z" transform="translate(-1.515 -1.351)" fill="#847367"/>
  <path id="Path_16" data-name="Path 16" d="M.4,7.977H4.484V21.141H.4Z" transform="translate(-0.071 -1.423)" fill="#847367"/>
  <path id="Path_17" data-name="Path 17" d="M2.368,0A2.379,2.379,0,1,0,4.736,2.368,2.369,2.369,0,0,0,2.368,0Z" transform="translate(0)" fill="#847367"/>
</svg>
