<svg xmlns="http://www.w3.org/2000/svg" width="24.231" height="19.718" viewBox="0 0 24.231 19.718">
  <path id="_x30_4.Twitter" d="M34.131,19.832a10.19,10.19,0,0,1-2.847.787,4.846,4.846,0,0,0,2.181-2.756,10.461,10.461,0,0,1-3.15,1.212,4.972,4.972,0,0,0-8.6,3.392,4.542,4.542,0,0,0,.121,1.121,13.982,13.982,0,0,1-10.207-5.179,4.985,4.985,0,0,0,1.514,6.633,4.769,4.769,0,0,1-2.241-.606,5.02,5.02,0,0,0,3.968,4.937,5.452,5.452,0,0,1-2.241.091,4.988,4.988,0,0,0,4.634,3.453,10.008,10.008,0,0,1-7.36,2.06A14.115,14.115,0,0,0,31.647,23.1a4.473,4.473,0,0,0-.03-.636,9.859,9.859,0,0,0,2.514-2.635Z" transform="translate(-9.9 -17.5)" fill="#847367"/>
</svg>
