<svg id="_x30_1._Facebook" xmlns="http://www.w3.org/2000/svg" width="16.699" height="30.958" viewBox="0 0 16.699 30.958">
  <path id="Icon_11_" d="M33.049,27.574H29.214c-.62,0-.814-.232-.814-.814V22.072c0-.62.232-.814.814-.814h3.836v-3.41A8.606,8.606,0,0,1,34.1,13.471,6.429,6.429,0,0,1,37.544,10.6a8.62,8.62,0,0,1,2.983-.5h3.8c.542,0,.775.232.775.775v4.417c0,.542-.232.775-.775.775-1.046,0-2.092,0-3.138.039A1.4,1.4,0,0,0,39.6,17.694c-.039,1.162,0,2.286,0,3.487h4.494c.62,0,.852.232.852.852v4.688c0,.62-.194.814-.852.814H39.6V40.166c0,.659-.194.891-.891.891H33.863c-.581,0-.814-.232-.814-.814Z" transform="translate(-28.4 -10.1)" fill="#847367"/>
</svg>
