<svg id="instagram_1_" data-name="instagram (1)" xmlns="http://www.w3.org/2000/svg" width="26.947" height="26.947" viewBox="0 0 26.947 26.947">
  <g id="Group_13" data-name="Group 13" transform="translate(20.653 4.986)">
    <g id="Group_12" data-name="Group 12">
      <path id="Path_18" data-name="Path 18" d="M393.055,94.739a.654.654,0,1,0,.654.654A.655.655,0,0,0,393.055,94.739Z" transform="translate(-392.401 -94.739)" fill="#847367"/>
    </g>
  </g>
  <g id="Group_15" data-name="Group 15" transform="translate(7.674 7.674)">
    <g id="Group_14" data-name="Group 14">
      <path id="Path_19" data-name="Path 19" d="M151.6,145.8a5.8,5.8,0,1,0,5.8,5.8A5.806,5.806,0,0,0,151.6,145.8Z" transform="translate(-145.804 -145.804)" fill="#847367"/>
    </g>
  </g>
  <g id="Group_17" data-name="Group 17">
    <g id="Group_16" data-name="Group 16">
      <path id="Path_20" data-name="Path 20" d="M19.56,0H7.387A7.4,7.4,0,0,0,0,7.387V19.56a7.4,7.4,0,0,0,7.387,7.387H19.56a7.4,7.4,0,0,0,7.387-7.387V7.387A7.4,7.4,0,0,0,19.56,0ZM13.474,20.865a7.391,7.391,0,1,1,7.391-7.391A7.4,7.4,0,0,1,13.474,20.865ZM21.307,7.886A2.246,2.246,0,1,1,23.552,5.64,2.248,2.248,0,0,1,21.307,7.886Z" fill="#847367"/>
    </g>
  </g>
</svg>
