<svg id="linkedin_1_" data-name="linkedin (1)" xmlns="http://www.w3.org/2000/svg" width="27.13" height="27.13" viewBox="0 0 27.13 27.13">
  <path id="Path_15" data-name="Path 15" d="M26.016,26.142h.007v-9.95c0-4.867-1.048-8.617-6.738-8.617A5.907,5.907,0,0,0,13.964,10.5h-.079V8.028h-5.4V26.141h5.618V17.172c0-2.361.448-4.645,3.372-4.645,2.881,0,2.924,2.695,2.924,4.8v8.818Z" transform="translate(1.107 0.988)" fill="#847367"/>
  <path id="Path_16" data-name="Path 16" d="M.4,7.977H6.021V26.089H.4Z" transform="translate(0.052 1.04)" fill="#847367"/>
  <path id="Path_17" data-name="Path 17" d="M3.258,0A3.273,3.273,0,1,0,6.516,3.258,3.259,3.259,0,0,0,3.258,0Z" fill="#847367"/>
</svg>
