<svg xmlns="http://www.w3.org/2000/svg" width="33.339" height="27.129" viewBox="0 0 33.339 27.129">
  <path id="_x30_4.Twitter" d="M43.239,20.709a14.021,14.021,0,0,1-3.917,1.084,6.667,6.667,0,0,0,3-3.792,14.393,14.393,0,0,1-4.334,1.667,6.84,6.84,0,0,0-11.835,4.667,6.249,6.249,0,0,0,.167,1.542A19.238,19.238,0,0,1,12.275,18.75a6.859,6.859,0,0,0,2.084,9.127,6.562,6.562,0,0,1-3.084-.833,6.907,6.907,0,0,0,5.459,6.793,7.5,7.5,0,0,1-3.084.125,6.863,6.863,0,0,0,6.376,4.751A13.77,13.77,0,0,1,9.9,41.546a19.279,19.279,0,0,0,10.5,3.084c12.585,0,19.42-10.418,19.42-19.42a6.155,6.155,0,0,0-.042-.875,13.565,13.565,0,0,0,3.459-3.626Z" transform="translate(-9.9 -17.5)" fill="#847367"/>
</svg>
